<svg xmlns="http://www.w3.org/2000/svg" version="1.1" xmlns:xlink="http://www.w3.org/1999/xlink" width="512" height="512" x="0" y="0" viewBox="0 0 512 512" style="enable-background:new 0 0 512 512" xml:space="preserve" class=""><g><circle cx="256" cy="333.151" r="10" fill="#ffffff" opacity="1" data-original="#000000" class=""></circle><path d="M471.922 28.952H40.078C17.979 28.952 0 46.931 0 69.03v279.756c0 22.099 17.979 40.078 40.078 40.078H200.92l-11.216 34.495c-14.189 2.4-25.032 14.769-25.032 29.63 0 16.574 13.484 30.059 30.059 30.059h122.536c16.574 0 30.059-13.484 30.059-30.059 0-14.861-10.843-27.23-25.032-29.63l-11.216-34.495H471.92c22.099 0 40.078-17.979 40.078-40.078V69.03c.002-22.099-17.977-40.078-40.076-40.078zM327.288 452.99c0 5.525-4.495 10.02-10.02 10.02H194.732c-5.524 0-10.02-4.495-10.02-10.02s4.495-10.02 10.02-10.02h122.536c5.525 0 10.02 4.495 10.02 10.02zm-26.204-30.059h-90.168l11.076-34.067h68.016zm190.877-74.145c0 11.049-8.989 20.039-20.039 20.039H40.078c-11.05 0-20.039-8.99-20.039-20.039V69.03c0-11.049 8.989-20.039 20.039-20.039h431.843c11.05 0 20.039 8.99 20.039 20.039v279.756z" fill="#ffffff" opacity="1" data-original="#000000" class=""></path><path d="M441.257 74.646H70.743c-13.812 0-25.049 11.237-25.049 25.049v218.427c0 13.812 11.237 25.049 25.049 25.049h140.344c5.533 0 10.02-4.486 10.02-10.02s-4.486-10.02-10.02-10.02H70.743a5.016 5.016 0 0 1-5.01-5.01V99.695a5.016 5.016 0 0 1 5.01-5.01h370.515a5.016 5.016 0 0 1 5.01 5.01v218.427a5.016 5.016 0 0 1-5.01 5.01H300.913c-5.533 0-10.02 4.486-10.02 10.02s4.486 10.02 10.02 10.02h140.344c13.812 0 25.049-11.237 25.049-25.049V99.695c0-13.812-11.237-25.049-25.049-25.049z" fill="#ffffff" opacity="1" data-original="#000000" class=""></path><path d="M197.955 172.773v-33.229c0-13.812-11.237-25.049-25.049-25.049h-53.893c-13.812 0-25.049 11.237-25.049 25.049v33.229c0 13.812 11.237 25.049 25.049 25.049h53.893c13.812-.001 25.049-11.237 25.049-25.049zm-20.039 0a5.016 5.016 0 0 1-5.01 5.01h-53.893a5.016 5.016 0 0 1-5.01-5.01v-33.229a5.016 5.016 0 0 1 5.01-5.01h53.893a5.016 5.016 0 0 1 5.01 5.01zM411.683 218.387a10.02 10.02 0 0 0-7.085-7.085l-73.554-19.708a10.02 10.02 0 0 0-12.271 12.272l19.708 73.554a10.022 10.022 0 0 0 16.763 4.492l5.668-5.668 26.739 26.739a10.022 10.022 0 0 0 14.17-.001l28.34-28.34c3.913-3.913 3.913-10.257 0-14.17l-26.74-26.738 5.668-5.668a10.019 10.019 0 0 0 2.594-9.679zm-2.777 49.17-14.169 14.17-26.739-26.739c-1.957-1.956-4.521-2.934-7.085-2.934s-5.128.978-7.085 2.934l-.481.482-10.726-40.028 40.028 10.726-.481.481c-3.913 3.913-3.913 10.257 0 14.17zM222.126 146.138h61.802c5.533 0 10.02-4.486 10.02-10.02s-4.486-10.02-10.02-10.02h-61.802c-5.533 0-10.02 4.486-10.02 10.02s4.487 10.02 10.02 10.02zM222.126 186.216h61.802c5.533 0 10.02-4.486 10.02-10.02s-4.486-10.02-10.02-10.02h-61.802c-5.533 0-10.02 4.486-10.02 10.02s4.487 10.02 10.02 10.02zM222.126 243.594h61.802c5.533 0 10.02-4.486 10.02-10.02s-4.486-10.02-10.02-10.02h-61.802c-5.533 0-10.02 4.486-10.02 10.02.001 5.534 4.487 10.02 10.02 10.02zM293.948 273.653c0-5.534-4.486-10.02-10.02-10.02h-61.802c-5.533 0-10.02 4.486-10.02 10.02s4.486 10.02 10.02 10.02h61.802c5.534-.001 10.02-4.487 10.02-10.02zM104.296 254.602c0 22.973 18.69 41.663 41.663 41.663s41.663-18.69 41.663-41.663c0-22.974-18.69-41.664-41.663-41.664s-41.663 18.691-41.663 41.664zm63.287 0c0 11.924-9.701 21.624-21.624 21.624s-21.624-9.701-21.624-21.624c0-11.924 9.701-21.625 21.624-21.625s21.624 9.701 21.624 21.625z" fill="#ffffff" opacity="1" data-original="#000000" class=""></path></g></svg>