<svg xmlns="http://www.w3.org/2000/svg" version="1.1" xmlns:xlink="http://www.w3.org/1999/xlink" width="512" height="512" x="0" y="0" viewBox="0 0 512 512" style="enable-background:new 0 0 512 512" xml:space="preserve"><g><path d="M435.149 292.094h-90.654a4.998 4.998 0 0 0-4.815 6.345 87.062 87.062 0 0 1 3.193 23.412c0 47.902-38.971 86.873-86.873 86.873s-86.873-38.971-86.873-86.873a87.096 87.096 0 0 1 3.194-23.412 5 5 0 0 0-4.815-6.345H76.851a5 5 0 0 0-5 5v54.585a4.999 4.999 0 0 0 4.033 4.905l33.398 6.585 13.768 33.192-18.972 28.291a5 5 0 0 0 .617 6.32l42.183 42.183a4.998 4.998 0 0 0 6.32.617l28.291-18.972 33.191 13.768 6.586 33.399a5 5 0 0 0 4.905 4.033h59.655a4.999 4.999 0 0 0 4.905-4.033l6.586-33.399 33.191-13.768 28.29 18.972a5 5 0 0 0 6.32-.617l42.184-42.183a5 5 0 0 0 .617-6.32l-18.973-28.291 13.769-33.192 33.398-6.585a5 5 0 0 0 4.033-4.905v-54.585a5 5 0 0 0-5-5zm-5 55.475-31.991 6.308a4.996 4.996 0 0 0-3.651 2.99l-15.82 38.139a4.995 4.995 0 0 0 .466 4.7l18.175 27.102-36.37 36.37-27.102-18.175a5.002 5.002 0 0 0-4.701-.465l-38.139 15.82a5 5 0 0 0-2.989 3.651l-6.309 31.992h-51.435l-6.309-31.992a5 5 0 0 0-2.989-3.651l-38.139-15.82a4.996 4.996 0 0 0-4.701.465l-27.103 18.175-36.369-36.37 18.174-27.102a4.998 4.998 0 0 0 .466-4.7l-15.819-38.139a5.001 5.001 0 0 0-3.651-2.99l-31.991-6.308v-45.475h79.297a97.308 97.308 0 0 0-2.021 19.757c0 53.416 43.457 96.873 96.873 96.873s96.873-43.457 96.873-96.873c0-6.661-.679-13.281-2.021-19.757h79.297v45.475zM102.338 187.781c1.478 3.739 4.886 6.246 8.895 6.541 4.014.297 7.747-1.684 9.758-5.166l11.174-19.353c48.97 23.056 84.376 69.208 93.918 122.29h-15.142a5.002 5.002 0 0 0-4.38 2.588c-4.557 8.275-6.966 17.67-6.966 27.168 0 31.103 25.304 56.406 56.405 56.406s56.406-25.304 56.406-56.406c0-9.497-2.409-18.892-6.967-27.168a5 5 0 0 0-4.38-2.588h-15.142c9.541-53.083 44.948-99.234 93.918-122.29l11.174 19.352a10.319 10.319 0 0 0 9.757 5.167 10.309 10.309 0 0 0 8.896-6.541l29.032-73.441a10.331 10.331 0 0 0-.654-9.016 10.335 10.335 0 0 0-7.481-5.076L352.44 88.67c-3.979-.592-7.858 1.108-10.116 4.432-2.259 3.323-2.412 7.551-.4 11.034l10.559 18.289c-26.271 13.04-49.898 31.342-69.202 53.514V88.635h21.808c4.023 0 7.607-2.247 9.355-5.865s1.281-7.824-1.22-10.977L264.137 9.93A10.328 10.328 0 0 0 256.003 6h-.002a10.332 10.332 0 0 0-8.136 3.93l-49.087 61.864c-2.501 3.152-2.968 7.358-1.22 10.976s5.333 5.865 9.356 5.865h21.807v87.304c-19.304-22.173-42.931-40.474-69.202-53.514l10.558-18.288c2.013-3.484 1.859-7.712-.399-11.035-2.259-3.323-6.127-5.022-10.117-4.432l-78.118 11.578a10.336 10.336 0 0 0-7.48 5.075 10.333 10.333 0 0 0-.655 9.017l29.033 73.441zM302.405 321.85c0 25.588-20.817 46.406-46.406 46.406s-46.405-20.818-46.405-46.406c0-6.84 1.517-13.613 4.406-19.757h83.998a46.5 46.5 0 0 1 4.407 19.757zm59.212-192.724a5.004 5.004 0 0 0 2.219-7.033l-13.255-22.958c-.052-.09-.123-.214.011-.411.136-.199.279-.177.381-.162l78.118 11.578a.367.367 0 0 1 .288.184c.079.136.05.253.016.34l-29.032 73.441c-.038.096-.09.228-.332.245-.239.019-.312-.104-.362-.193l-13.441-23.28a5.002 5.002 0 0 0-6.336-2.08c-27.385 11.996-51.528 30.909-69.819 54.696a177.884 177.884 0 0 0-26.793 49.479v-71.293c20.741-26.707 47.785-48.323 78.339-62.552zM206.913 78.634c-.105 0-.249 0-.353-.216s-.016-.329.05-.41l49.086-61.863c.032-.04.116-.146.303-.146s.271.105.302.146l49.087 61.862c.065.083.154.195.05.412-.104.215-.247.215-.352.215h-26.808a5 5 0 0 0-5 5v208.459h-34.559V83.635a5 5 0 0 0-5-5h-26.807zM82.62 110.322a.364.364 0 0 1 .287-.184l78.117-11.578c.105-.015.246-.037.382.162.134.197.062.321.01.412l-13.254 22.958a5 5 0 0 0 2.22 7.033c30.552 14.228 57.597 35.845 78.338 62.552v71.293a177.898 177.898 0 0 0-26.793-49.479c-18.291-23.787-42.435-42.701-69.819-54.696a5.003 5.003 0 0 0-6.336 2.08l-13.441 23.281c-.051.089-.108.216-.362.193-.241-.018-.293-.148-.331-.245l-29.032-73.44a.368.368 0 0 1 .016-.341z" fill="#0129e3" opacity="1" data-original="#000000"></path></g></svg>