<svg xmlns="http://www.w3.org/2000/svg" version="1.1" xmlns:xlink="http://www.w3.org/1999/xlink" width="512" height="512" x="0" y="0" viewBox="0 0 32 32" style="enable-background:new 0 0 512 512" xml:space="preserve"><g><path d="M16 2a13.927 13.927 0 0 0-9.154 3.432L3.707 2.293a1 1 0 0 0-1.414 1.414l3.139 3.139a13.98 13.98 0 0 0 19.722 19.722l3.139 3.139a1 1 0 0 0 1.414-1.414l-3.139-3.139A13.98 13.98 0 0 0 16 2Zm0 26A11.987 11.987 0 0 1 6.845 8.26l11.117 11.116A1.999 1.999 0 0 1 14 19a1 1 0 0 0-2 0 3.996 3.996 0 0 0 3 3.858V25a1 1 0 0 0 2 0v-2.142a3.99 3.99 0 0 0 2.494-1.95l4.247 4.247A11.94 11.94 0 0 1 16 28Zm9.155-4.26L14.038 12.625A1.999 1.999 0 0 1 18 13a1 1 0 0 0 2 0 3.995 3.995 0 0 0-3-3.858V7a1 1 0 0 0-2 0v2.142a3.991 3.991 0 0 0-2.494 1.95L8.26 6.845a11.987 11.987 0 0 1 16.896 16.896Z" data-name="Layer 2" fill="#0129e3" opacity="1" data-original="#000000"></path></g></svg>