<svg xmlns="http://www.w3.org/2000/svg" version="1.1" xmlns:xlink="http://www.w3.org/1999/xlink" width="512" height="512" x="0" y="0" viewBox="0 0 124 124" style="enable-background:new 0 0 512 512" xml:space="preserve" class=""><g><path d="M106.766 88.335c3.604-2.409 5.978-6.48 5.978-11.089 0-7.382-6.09-13.387-13.574-13.387s-13.574 6.005-13.574 13.387c0 4.544 2.312 8.56 5.832 10.981-3.76 1.653-6.987 4.518-9.223 8.268-2.868-4.476-6.994-7.947-11.822-9.841 4.703-2.836 7.854-7.903 7.854-13.689 0-8.872-7.386-16.09-16.464-16.09s-16.464 7.218-16.464 16.09c0 5.858 3.231 10.981 8.032 13.795-4.709 1.917-8.732 5.344-11.545 9.735-2.237-3.75-5.463-6.615-9.223-8.268 3.52-2.421 5.832-6.437 5.832-10.981 0-7.382-6.09-13.387-13.574-13.387s-13.574 6.005-13.574 13.387c0 4.608 2.374 8.68 5.978 11.089C10.052 91.624 5 99.325 5 108.277v8.595a2 2 0 0 0 2 2h30.491V122a2 2 0 0 0 2 2h45.018a2 2 0 0 0 2-2v-3.128H117a2 2 0 0 0 2-2v-8.595c0-8.952-5.052-16.653-12.234-19.942zM99.17 67.859c5.279 0 9.574 4.211 9.574 9.387s-4.295 9.387-9.574 9.387-9.574-4.211-9.574-9.387 4.295-9.387 9.574-9.387zm-49.861 5.106c0-6.666 5.591-12.09 12.464-12.09s12.464 5.424 12.464 12.09c0 6.667-5.591 12.091-12.464 12.091s-12.464-5.424-12.464-12.091zM24.83 67.859c5.279 0 9.574 4.211 9.574 9.387s-4.295 9.387-9.574 9.387-9.574-4.211-9.574-9.387 4.295-9.387 9.574-9.387zm12.661 43.505v3.508H9v-6.595c0-9.729 7.184-17.645 16.013-17.645 6.289 0 11.907 3.996 14.52 10.235a27.8 27.8 0 0 0-2.042 10.497zM82.509 120H41.491v-8.636c0-12.301 9.2-22.309 20.509-22.309s20.509 10.008 20.509 22.309zM115 114.872H86.509v-3.508a27.8 27.8 0 0 0-2.041-10.497c2.612-6.239 8.23-10.235 14.52-10.235 8.829 0 16.013 7.915 16.013 17.645v6.595zM65.675 41.479h-7.35a2 2 0 0 1-2-2v-8.545h-8.261a2 2 0 0 1-2-2v-7.51a2 2 0 0 1 2-2h8.261v-8.545a2 2 0 0 1 2-2h7.35a2 2 0 0 1 2 2v8.545h8.261a2 2 0 0 1 2 2v7.51a2 2 0 0 1-2 2h-8.261v8.545a2 2 0 0 1-2 2zm-5.35-4h3.35v-8.545a2 2 0 0 1 2-2h8.261v-3.51h-8.261a2 2 0 0 1-2-2v-8.545h-3.35v8.545a2 2 0 0 1-2 2h-8.261v3.51h8.261a2 2 0 0 1 2 2z" fill="#0129e3" opacity="1" data-original="#000000"></path><path d="M62 50.357c-13.719 0-24.88-11.295-24.88-25.179S48.281 0 62 0s24.88 11.295 24.88 25.179S75.719 50.357 62 50.357zM62 4c-11.514 0-20.88 9.501-20.88 21.179S50.486 46.357 62 46.357s20.88-9.501 20.88-21.179S73.514 4 62 4z" fill="#0129e3" opacity="1" data-original="#000000"></path></g></svg>