<svg xmlns="http://www.w3.org/2000/svg" version="1.1" xmlns:xlink="http://www.w3.org/1999/xlink" width="512" height="512" x="0" y="0" viewBox="0 0 682.667 682.667" style="enable-background:new 0 0 512 512" xml:space="preserve"><g><defs><clipPath id="a" clipPathUnits="userSpaceOnUse"><path d="M0 512h512V0H0Z" fill="#0129e3" opacity="1" data-original="#000000"></path></clipPath></defs><g clip-path="url(#a)" transform="matrix(1.33333 0 0 -1.33333 0 682.667)"><path d="M0 0c-12.497-12.497-32.758-12.497-45.255 0s-12.497 32.758 0 45.255 32.758 12.497 45.255 0S12.497 12.497 0 0Z" style="stroke-width:20;stroke-linecap:round;stroke-linejoin:round;stroke-miterlimit:10;stroke-dasharray:none;stroke-opacity:1" transform="translate(444.576 415.32)" fill="none" stroke="#0129e3" stroke-width="20" stroke-linecap="round" stroke-linejoin="round" stroke-miterlimit="10" stroke-dasharray="none" stroke-opacity="" data-original="#000000" opacity="1"></path><path d="M0 0c-12.497-12.497-32.758-12.497-45.255 0s-12.497 32.758 0 45.255 32.758 12.497 45.255 0S12.497 12.497 0 0Z" style="stroke-width:20;stroke-linecap:round;stroke-linejoin:round;stroke-miterlimit:10;stroke-dasharray:none;stroke-opacity:1" transform="translate(112.68 51.424)" fill="none" stroke="#0129e3" stroke-width="20" stroke-linecap="round" stroke-linejoin="round" stroke-miterlimit="10" stroke-dasharray="none" stroke-opacity="" data-original="#000000" opacity="1"></path><path d="M0 0a247.164 247.164 0 0 1 48.513-4.783c135.862 0 246 110.138 246 246 0 59.309-20.992 113.713-55.947 156.196" style="stroke-width:20;stroke-linecap:round;stroke-linejoin:round;stroke-miterlimit:10;stroke-dasharray:none;stroke-opacity:1" transform="translate(207.487 14.783)" fill="none" stroke="#0129e3" stroke-width="20" stroke-linecap="round" stroke-linejoin="round" stroke-miterlimit="10" stroke-dasharray="none" stroke-opacity="" data-original="#000000" opacity="1"></path><path d="M0 0a247.138 247.138 0 0 1-48.98 4.877c-135.862 0-246-110.138-246-246 0-59.309 20.992-113.713 55.947-156.196" style="stroke-width:20;stroke-linecap:round;stroke-linejoin:round;stroke-miterlimit:10;stroke-dasharray:none;stroke-opacity:1" transform="translate(304.98 497.123)" fill="none" stroke="#0129e3" stroke-width="20" stroke-linecap="round" stroke-linejoin="round" stroke-miterlimit="10" stroke-dasharray="none" stroke-opacity="" data-original="#000000" opacity="1"></path><path d="M0 0c-40.112 0-72.63 32.517-72.63 72.63 0 40.112 32.518 72.629 72.63 72.629 40.112 0 72.63-32.517 72.63-72.629C72.63 32.517 40.112 0 0 0Zm144.835 103.983a147.303 147.303 0 0 1-20.32 49.038l19.16 19.161-44.229 44.197-19.145-19.145a147.276 147.276 0 0 1-49.037 20.319v27.077h-62.528v-27.077a147.276 147.276 0 0 1-49.037-20.319l-19.145 19.145-44.229-44.197 19.16-19.161a147.303 147.303 0 0 1-20.32-49.038h-27.148l-.034-62.527h27.181a147.317 147.317 0 0 1 20.32-49.039l-19.233-19.233 44.197-44.23 19.249 19.25a147.298 147.298 0 0 1 49.039-20.321V-99.37h62.528v27.253a147.298 147.298 0 0 1 49.039 20.321l19.249-19.25 44.197 44.23-19.233 19.233a147.317 147.317 0 0 1 20.32 49.039h27.181v62.527z" style="stroke-width:20;stroke-linecap:round;stroke-linejoin:round;stroke-miterlimit:10;stroke-dasharray:none;stroke-opacity:1" transform="translate(256 183.37)" fill="none" stroke="#0129e3" stroke-width="20" stroke-linecap="round" stroke-linejoin="round" stroke-miterlimit="10" stroke-dasharray="none" stroke-opacity="" data-original="#000000" opacity="1"></path><path d="M0 0v0" style="stroke-width:20;stroke-linecap:round;stroke-linejoin:round;stroke-miterlimit:10;stroke-dasharray:none;stroke-opacity:1" transform="translate(348.078 484.185)" fill="none" stroke="#0129e3" stroke-width="20" stroke-linecap="round" stroke-linejoin="round" stroke-miterlimit="10" stroke-dasharray="none" stroke-opacity="" data-original="#000000" opacity="1"></path><path d="M0 0v0" style="stroke-width:20;stroke-linecap:round;stroke-linejoin:round;stroke-miterlimit:10;stroke-dasharray:none;stroke-opacity:1" transform="translate(164.358 27.639)" fill="none" stroke="#0129e3" stroke-width="20" stroke-linecap="round" stroke-linejoin="round" stroke-miterlimit="10" stroke-dasharray="none" stroke-opacity="" data-original="#000000" opacity="1"></path></g></g></svg>